<?xml version="1.0" encoding="UTF-8" standalone="no"?>
<!-- Created with Inkscape (http://www.inkscape.org/) -->

<svg
   xmlns:dc="http://purl.org/dc/elements/1.1/"
   xmlns:cc="http://creativecommons.org/ns#"
   xmlns:rdf="http://www.w3.org/1999/02/22-rdf-syntax-ns#"
   xmlns:svg="http://www.w3.org/2000/svg"
   xmlns="http://www.w3.org/2000/svg"
   xmlns:sodipodi="http://sodipodi.sourceforge.net/DTD/sodipodi-0.dtd"
   xmlns:inkscape="http://www.inkscape.org/namespaces/inkscape"
   version="1.1"
   id="svg9638"
   xml:space="preserve"
   width="800"
   height="800"
   viewBox="0 0 800 800"
   sodipodi:docname="balloon-silhouette-pattern-publicdomainvectors.org.svg"
   inkscape:version="0.92.4 (5da689c313, 2019-01-14)"><metadata
     id="metadata9644"><rdf:RDF><cc:Work
         rdf:about=""><dc:format>image/svg+xml</dc:format><dc:type
           rdf:resource="http://purl.org/dc/dcmitype/StillImage" /><dc:title></dc:title></cc:Work></rdf:RDF></metadata><defs
     id="defs9642"><clipPath
       clipPathUnits="userSpaceOnUse"
       id="clipPath9654"><path
         d="M 0,600 H 600 V 0 H 0 Z"
         id="path9652"
         inkscape:connector-curvature="0" /></clipPath></defs><sodipodi:namedview
     pagecolor="#ffffff"
     bordercolor="#666666"
     borderopacity="1"
     objecttolerance="10"
     gridtolerance="10"
     guidetolerance="10"
     inkscape:pageopacity="0"
     inkscape:pageshadow="2"
     inkscape:window-width="797"
     inkscape:window-height="480"
     id="namedview9640"
     showgrid="false"
     inkscape:zoom="0.295"
     inkscape:cx="400"
     inkscape:cy="400"
     inkscape:window-x="0"
     inkscape:window-y="0"
     inkscape:window-maximized="0"
     inkscape:current-layer="g9646" /><g
     id="g9646"
     inkscape:groupmode="layer"
     inkscape:label="balloon-silhouette-pattern-publicdomainvectors.org"
     transform="matrix(1.3333333,0,0,-1.3333333,0,800)"><g
       id="g9648"><g
         id="g9650"
         clip-path="url(#clipPath9654)"><path
           d="m 303.259,62.305 c 1.702,0.032 4.638,0.053 7.536,0.09 l -8.262,9.467 z"
           style="fill:#26469f;fill-opacity:1;fill-rule:nonzero;stroke:none"
           id="path9656"
           inkscape:connector-curvature="0" /><path
           d="m 310.795,62.395 c 1.648,0.022 3.284,0.049 4.671,0.087 4.739,0.146 12.848,0.146 14.945,0.843 2.077,0.699 1.673,1.824 1.949,3.491 0.244,1.481 -0.6,3.925 -0.89,6.402 l -28.937,-1.356 z"
           style="fill:#234fa9;fill-opacity:1;fill-rule:nonzero;stroke:none"
           id="path9658"
           inkscape:connector-curvature="0" /><path
           d="m 298.16,75.307 c 0.004,-0.197 0.007,-0.389 0.013,-0.578 0.077,-2.782 0.262,-5.41 -0.262,-6.016 -0.523,-0.606 -0.96,-0.79 -0.786,-1.745 0.042,-0.229 0.092,-0.49 0.146,-0.766 l 5.262,5.66 z"
           style="fill:#28419e;fill-opacity:1;fill-rule:nonzero;stroke:none"
           id="path9660"
           inkscape:connector-curvature="0" /><path
           d="m 298.997,63.917 c 0,0 0,0.602 -0.08,0.844 -0.078,0.237 0.053,0.606 0.053,0.606 0,0 0.267,-0.479 0.238,-0.848 -0.024,-0.37 -0.211,-0.602 -0.211,-0.602 m -1.726,2.285 c 0.168,-0.885 0.355,-1.919 0.291,-2.454 -0.09,-0.699 0.346,-1.581 0.346,-1.581 0,0 0.439,0.441 0.524,0.79 0.088,0.35 0.436,0.606 0.436,0.606 0,0 0.437,-0.606 0.873,-0.862 0.437,-0.277 1.047,-0.534 2.182,-0.441 0.221,0.017 0.691,0.031 1.336,0.045 l -0.726,9.557 z"
           style="fill:#293e9a;fill-opacity:1;fill-rule:nonzero;stroke:none"
           id="path9662"
           inkscape:connector-curvature="0" /><path
           d="m 351.725,128.944 c 0.024,0.258 0.05,0.514 0.074,0.764 0.023,0.265 0.048,0.537 0.071,0.814 l -0.403,0.013 z"
           style="fill:#5266a7;fill-opacity:1;fill-rule:nonzero;stroke:none"
           id="path9664"
           inkscape:connector-curvature="0" /><path
           d="m 298.414,88.525 c -0.169,-0.597 -0.266,-1.378 -0.241,-2.449 0.081,-3.528 -0.068,-7.675 -0.013,-10.769 l 4.373,-3.445 z"
           style="fill:#1c60b6;fill-opacity:1;fill-rule:nonzero;stroke:none"
           id="path9666"
           inkscape:connector-curvature="0" /><path
           d="m 351.128,130.13 c -0.306,-3.087 -0.607,-5.953 -0.89,-8.402 -0.467,0.935 0.179,-0.35 -0.316,1.876 -0.532,2.259 0,1.91 -0.349,3.306 -0.187,0.743 -0.083,1.092 0.004,1.361 l -1.368,-1.641 -1.705,-4.956 c -2.283,-5.13 -6.478,-10.187 -11.424,-12.432 -0.606,-0.271 -1.226,-0.456 -1.847,-0.57 l -0.515,-0.617 c 3.648,0.392 7.523,2.855 12.476,9.609 0.296,0.403 0.592,0.85 0.844,1.305 0.611,-0.844 1.915,-2.701 2.298,-3.753 0.466,-1.193 0.389,-2.535 0.131,-4.229 -0.179,-0.804 -0.383,-1.619 -0.586,-2.442 -0.311,-0.777 -0.592,-1.324 -0.534,-1.989 -2.778,-9.832 -7.374,-19.913 -12.373,-19.913 -1.824,0 -3.479,1.507 -4.949,3.733 -0.312,1.416 -0.68,2.483 -1.583,2.832 h -0.016 c -1.025,2.073 -1.905,4.389 -2.629,6.549 l -0.271,-0.325 c 0.649,-1.878 1.401,-4.058 2.328,-6.113 -1.121,0.126 -2.612,-0.261 -2.612,-0.261 0,0 -0.218,2.716 -0.382,5.575 l -2.769,-3.32 c 0.016,-1.089 0.026,-2.08 0.026,-2.875 -0.099,0.368 -0.363,1.007 -0.676,2.095 l -18.908,-22.671 28.937,1.356 c -0.039,0.331 -0.069,0.663 -0.084,0.993 -0.148,2.72 -0.681,12.597 -1.086,14.894 0.424,-0.566 0.882,-1.066 1.362,-1.488 4.064,-3.568 6.968,-1.009 11.346,5.79 1.712,2.667 3.272,7.099 4.596,12.16 0.383,-1.231 0.383,-2.376 0.383,-3.957 0,-1.744 -0.513,-2.793 0.185,-4.537 0.698,-1.751 -0.185,-1.916 1.401,-2.963 1.562,-1.052 1.489,-2.303 1.489,-2.303 0,0 2.356,1.769 2.172,3.166 -0.185,1.397 0.184,1.397 0,2.632 -0.185,1.212 0.348,1.377 0.184,2.261 -0.184,0.882 -0.184,1.909 -0.184,2.608 0,0.699 0.184,-0.164 0.184,1.581 0,1.75 0.862,3.146 0.33,4.013 -0.514,0.865 -0.863,1.746 -1.213,2.958 -0.348,1.232 -0.698,2.096 -0.698,3.143 0,1.047 0.18,3.145 0.18,3.145 0,0 -0.349,1.219 -0.534,2.266 -0.13,0.732 -0.421,0.95 -0.771,1.397 0.431,2.823 0.771,5.54 1.013,7.967 l -0.258,1.591 z"
           style="fill:#2966ba;fill-opacity:1;fill-rule:nonzero;stroke:none"
           id="path9668"
           inkscape:connector-curvature="0" /><path
           d="m 313.489,105.896 c 0,0 -0.021,0 -0.051,0.04 0.032,-0.058 0.051,-0.04 0.051,-0.04"
           style="fill:#186ebf;fill-opacity:1;fill-rule:nonzero;stroke:none"
           id="path9670"
           inkscape:connector-curvature="0" /><path
           d="m 302.824,103.541 c -0.13,0.037 -0.232,0.097 -0.232,0.097 0,0 0.016,0.034 -0.01,0.088 -0.035,0.09 -0.113,0.11 -0.113,0.11 0,0 0.018,0.034 0.044,0.053 0.164,0.204 0.196,0.262 0.502,0.514 0.348,0.301 1.439,0.98 1.902,1.086 0.466,0.113 0.134,-2.404 0.134,-2.404 0,0 -1.475,0.271 -2.227,0.456 m 2.451,6.293 c -0.755,-0.204 -1.92,-0.427 -2.595,-0.315 -1.446,0.238 -0.847,1.381 0.317,2.298 0.553,0.441 1.176,0.829 2.24,1.363 0.068,-0.665 0.09,-1.272 0.09,-1.969 0,-0.388 -0.02,-0.884 -0.052,-1.377 m 8.255,-3.167 c -0.021,-0.013 -0.043,-0.052 -0.07,-0.092 -0.017,-0.019 -0.031,-0.054 -0.043,-0.073 0.005,0.093 0.046,0.165 0.099,0.238 0.005,-0.019 0.007,-0.038 0.014,-0.073 m -0.016,0.165 c -0.03,-0.015 -0.059,-0.034 -0.092,-0.053 -0.047,-0.039 -0.082,-0.077 -0.112,-0.112 0.004,0.02 0.011,0.054 0.022,0.093 0.053,0.204 0.237,0.257 0.358,0.276 l -0.004,-0.034 c -0.051,-0.058 -0.084,-0.097 -0.107,-0.15 -0.036,0 -0.065,0 -0.065,-0.02 m 0.23,0.204 c -0.012,0 -0.021,-0.019 -0.034,-0.019 0.002,0 0.005,0.019 0.008,0.019 z m 0.339,0.219 c -0.017,-0.02 -0.069,0 -0.087,-0.02 -0.034,-0.014 -0.034,-0.014 -0.034,-0.034 -0.02,-0.014 -0.036,-0.054 -0.058,-0.054 -0.063,0.02 -0.114,0.02 -0.121,0.02 -0.01,0 -0.012,-0.02 -0.017,-0.039 h -0.02 c 0.029,0.059 0.083,0.107 0.143,0.145 0.073,0 0.136,-0.018 0.194,-0.018 m -6.492,5.168 0.296,1.712 c 0.162,0.034 0.328,0.073 0.49,0.092 0.679,0.073 1.299,0.146 1.285,0.073 -0.081,-0.384 -0.182,-1.12 -0.182,-1.12 0,0 -0.328,-0.942 0.836,-1.048 1.163,-0.111 0.91,-0.466 2.189,-0.466 1.146,0 1.552,-0.086 2.292,0.151 -0.004,-0.237 0,-0.568 0.038,-1.047 0.065,-0.868 -0.056,-2.298 -0.065,-3.002 -0.002,-0.067 -0.396,-0.106 -0.391,-0.183 h -0.025 c -0.458,-0.199 -0.785,-0.068 -0.87,0.077 0.037,-0.126 0.161,-0.165 0.291,-0.204 0.158,-0.053 0.342,0.059 0.471,0.059 0.005,-0.039 -0.083,-0.059 -0.083,-0.097 -0.026,0 -0.017,-0.015 -0.024,-0.034 h 0.005 0.004 v 0.019 c 0.003,-0.019 0.018,-0.039 -0.038,-0.053 h -0.014 c 0.011,0.014 0.021,0.014 0.029,0.014 h -0.054 c -0.034,0 -0.055,0.02 -0.05,0.02 -0.003,-0.02 -0.071,-0.034 -0.175,-0.073 h 0.009 c -0.014,0 -0.043,-0.02 -0.087,-0.04 h 0.078 c -0.073,-0.052 -0.112,-0.106 -0.136,-0.165 -0.02,0 -0.039,-0.018 -0.061,-0.018 -0.3,-0.126 -0.359,-0.311 -0.359,-0.457 -0.041,-0.058 -0.065,-0.112 -0.079,-0.183 h -0.003 c -0.039,-0.165 0.02,-0.33 0.054,-0.388 -0.018,0.039 -0.041,0.126 -0.041,0.309 0,0.039 0.004,0.06 0.007,0.079 0.047,0 0.104,0 0.157,0.018 h -0.155 c 0.012,0.053 0.034,0.088 0.064,0.127 0.002,-0.058 0.012,-0.093 0.019,-0.111 -0.005,0.018 -0.013,0.053 -0.01,0.131 0.06,0.072 0.137,0.106 0.194,0.125 -0.082,-0.086 -0.109,-0.184 -0.109,-0.272 h -0.003 v -0.018 c -0.131,-0.262 -0.022,-0.446 0.052,-0.514 -0.022,0.034 -0.052,0.087 -0.078,0.184 -0.027,0.107 -0.005,0.199 0.034,0.29 0.007,-0.056 0.031,-0.11 0.053,-0.144 -0.014,0.034 -0.029,0.105 -0.031,0.202 h 0.007 c 0.051,0.088 0.108,0.165 0.116,0.165 -0.002,-0.018 0.007,-0.077 -0.008,-0.149 -0.024,0 -0.077,0 -0.108,-0.016 h 0.101 c 0.007,-0.114 0.007,-0.168 0.022,-0.333 0.015,-0.146 0.03,-0.533 0.182,-0.718 0.109,-0.145 -0.082,-0.296 -0.202,-0.494 -0.103,-0.17 -0.263,-0.461 -0.334,-0.572 -0.07,-0.113 0.194,-0.219 0.293,-0.219 0.1,0 0.2,-0.145 0.2,-0.243 0,-0.086 -0.071,-0.086 -0.071,-0.163 0,-0.054 0.112,-0.108 0.112,-0.108 0,0 -0.1,-0.019 -0.08,-0.097 0.022,-0.053 0.13,-0.086 0.14,-0.199 0.013,-0.131 -0.049,-0.131 -0.058,-0.276 -0.009,-0.146 0.058,-0.276 0.228,-0.35 0.143,-0.077 0.551,-0.057 0.815,-0.019 v -3.053 c -0.301,-0.534 -0.82,-1.194 -1.072,-1.563 -0.279,-0.387 -0.477,-0.988 -0.837,-1.58 -0.359,-0.592 -1.033,-1.358 -1.033,-1.358 0,0 -0.118,0.805 -0.156,1.397 -0.042,0.585 -0.241,1.304 -0.318,2.055 -0.083,0.777 -0.359,1.397 -0.638,2.113 -0.277,0.719 -0.555,0.883 -0.555,0.883 l 0.157,0.152 -0.356,0.643 -0.475,0.034 c 0,0 -0.08,0.404 0.038,0.791 0.121,0.408 0.558,0.645 0.837,1.16 0.277,0.518 0.159,1.104 -0.08,1.986 -0.24,0.864 -0.636,1.233 -1.629,1.51 -0.301,0.091 -0.696,0.091 -1.1,0.071 l -0.028,1.103 0.134,-0.016 z m 0.876,5.056 0.028,0.093 1.12,0.038 0.1,-0.697 v -1.289 l -0.061,-1.088 -1.733,-0.256 z m 6.304,-26.477 -2.741,-0.059 -0.047,0.151 c 0,0 -0.045,0.144 -0.067,0.348 -0.022,0.2 -0.182,0.7 -0.182,0.7 l 0.456,0.381 c 0,0 0.521,0.612 0.861,0.869 0.342,0.257 0.726,0.974 1.091,1.431 0.142,0.184 0.378,0.48 0.629,0.815 z m 5.415,23.225 v 3.641 l 2.188,0.054 c 0.037,-0.35 0.073,-0.771 0.073,-1.271 0,-1.542 0.553,-1.396 0.277,-2.371 -0.165,-0.587 -0.386,-1.449 -0.57,-1.983 -0.534,-0.078 -0.938,-0.02 -1.396,-0.039 -0.313,-0.02 -0.572,0 -0.572,0.112 0.019,0.607 0,1.857 0,1.857 m 4.21,1.304 c 0.039,0.093 0.056,0.165 0.076,0.256 0.533,-0.071 1.139,-0.105 1.6,-0.222 1.636,-0.364 2.354,-1.396 0.845,-2.095 -0.828,-0.402 -1.783,-0.62 -2.465,-0.751 -0.184,0.698 -0.386,1.6 -0.056,2.812 m -2.955,-20.998 c -0.327,1.129 -0.707,2.741 -1.015,5.037 -0.11,0.848 -1.068,2.133 -1.411,2.467 -0.35,0.329 -0.648,0.437 -0.648,0.437 l -0.08,-0.074 c 0,0 -0.186,0.112 -0.289,0.204 -0.097,0.073 -0.218,0.316 -0.257,0.515 -0.038,0.218 -0.041,0.422 0.163,0.77 0.34,0.534 0.577,1.548 0.553,2.231 -0.031,0.97 -0.492,1.562 -1.103,1.746 0.012,0.737 -0.058,2.648 0.014,3.437 0.028,0.257 0.052,0.548 0.073,0.843 0.133,-0.014 0.27,-0.014 0.421,-0.014 1.114,0 2.784,-0.116 4.22,0 -0.076,-0.184 -0.129,-0.349 -0.186,-0.499 -0.294,-0.698 0,-0.994 -0.148,-4.195 0,-0.086 0,-0.183 -0.016,-0.271 0.053,-0.059 0.092,-0.097 0.092,-0.15 0,-0.296 0.195,-6.935 0.267,-11.704 l 2.769,3.32 c -0.063,1.114 -0.119,2.25 -0.151,3.255 0.129,-0.423 0.259,-0.864 0.425,-1.325 0.126,-0.361 0.258,-0.741 0.392,-1.131 l 0.271,0.325 c -0.432,1.291 -0.808,2.524 -1.124,3.619 v 0.02 6.729 c 1.086,-0.757 2.795,-1.619 5.169,-1.988 0.952,-0.147 1.906,-0.188 2.876,-0.082 l 0.515,0.617 c -3.313,-0.604 -6.686,0.828 -8.56,1.822 v 0.717 c 0,0.534 -0.072,0.955 -0.185,1.338 1.748,0.408 3.056,0.887 3.329,1.566 0.185,0.5 -0.201,1.101 -1.507,1.47 -0.643,0.183 -1.416,0.281 -1.822,0.35 0.221,0.736 0.553,1.493 0.811,2.064 h 0.11 c 0.623,0.948 4.013,6.097 8.763,13.271 l -39.366,1.668 c 2.127,-3.639 3.692,-6.312 4.157,-7.075 1.68,-2.754 3.763,-6.032 5.663,-7.515 0,-0.038 0.003,-0.097 0.005,-0.15 0.002,-0.019 0.005,-0.073 0.008,-0.112 0.004,-0.038 0.007,-0.087 0.011,-0.146 0.002,-0.057 0.01,-0.111 0.017,-0.183 0.008,-0.093 0.015,-0.165 0.025,-0.278 0.04,-0.381 0.101,-0.896 0.201,-1.652 0.154,-1.144 0.253,-1.896 0.323,-2.52 -0.801,-0.35 -1.445,-0.739 -2.361,-1.456 -1.233,-0.97 -1.863,-2.313 0.028,-2.463 0.93,-0.054 1.631,0.15 2.405,0.315 -0.078,-1.231 -0.221,-2.595 -0.221,-2.595 0,0 -0.785,0.127 -2.006,-0.571 -1.223,-0.698 -2.968,-2.134 -3.404,-2.734 -0.435,-0.63 -0.67,-1.107 -0.103,-1.533 0.932,-0.712 3.257,-1.43 3.257,-1.43 0,0 -0.079,-2.226 0.011,-3.715 0.087,-1.468 0.119,-2.574 0.032,-3.107 -0.087,-0.514 -0.071,-0.883 -0.071,-0.883 0,0 -1.728,-0.514 -2.516,-1.823 -0.56,-0.93 -1.432,-1.291 -1.853,-2.787 l 4.119,-16.663 z"
           style="fill:#186ebf;fill-opacity:1;fill-rule:nonzero;stroke:none"
           id="path9672"
           inkscape:connector-curvature="0" /><path
           d="m 351.128,130.13 0.339,0.405 -0.297,0.014 c -0.014,-0.141 -0.028,-0.28 -0.042,-0.419"
           style="fill:#186ebf;fill-opacity:1;fill-rule:nonzero;stroke:none"
           id="path9674"
           inkscape:connector-curvature="0" /><path
           d="m 313.31,107.017 c 0.107,0.17 0.145,0.15 0.281,0.204 0.058,0.034 0.114,0.034 0.17,0.052 0.031,0.02 0.058,0.02 0.085,0.04 -0.492,-0.112 -0.49,-0.185 -0.536,-0.296"
           style="fill:#186ebf;fill-opacity:1;fill-rule:nonzero;stroke:none"
           id="path9676"
           inkscape:connector-curvature="0" /><path
           d="m 349.627,128.812 c 0.138,0.587 0.269,1.184 0.394,1.785 l -0.736,0.031 c -0.235,-1.081 -0.476,-2.067 -0.725,-2.981 l -0.351,-1.017 1.368,1.641 c 0.058,0.182 0.109,0.331 0.05,0.541"
           style="fill:#186ebf;fill-opacity:1;fill-rule:nonzero;stroke:none"
           id="path9678"
           inkscape:connector-curvature="0" /><path
           d="m 313.216,106.832 c 0.278,0.258 0.455,0.389 0.552,0.441 h -0.007 c -0.151,-0.086 -0.349,-0.222 -0.545,-0.441"
           style="fill:#186ebf;fill-opacity:1;fill-rule:nonzero;stroke:none"
           id="path9680"
           inkscape:connector-curvature="0" /><path
           d="m 135.807,420.643 c -0.544,-6.395 -0.521,-13.352 0.323,-21.15 l 0.122,0.853 z"
           style="fill:#443478;fill-opacity:1;fill-rule:nonzero;stroke:none"
           id="path9682"
           inkscape:connector-curvature="0" /><path
           d="m 341.199,141.862 -16.007,17.657 c -2.8,-0.314 -8.336,-0.9 -11.426,-0.996 -4.257,-0.105 -13.232,1.086 -13.232,1.086 0,0 7.85,1.087 13.511,0.942 3.383,-0.08 8.124,-0.438 10.808,-0.657 l -17.335,19.122 -17.04,-38.676 c 1.569,-2.683 3.05,-5.216 4.328,-7.402 l 39.366,-1.668 c 2.114,3.193 4.498,6.788 7.027,10.592"
           style="fill:#2a8dd1;fill-opacity:1;fill-rule:nonzero;stroke:none"
           id="path9684"
           inkscape:connector-curvature="0" /><path
           d="m 351.17,130.549 0.297,-0.014 -0.27,0.297 c -0.009,-0.095 -0.018,-0.189 -0.027,-0.283"
           style="fill:#2a8dd1;fill-opacity:1;fill-rule:nonzero;stroke:none"
           id="path9686"
           inkscape:connector-curvature="0" /><path
           d="m 350.273,131.852 -0.602,0.665 c -0.127,-0.663 -0.255,-1.29 -0.386,-1.889 l 0.736,-0.031 c 0.088,0.416 0.171,0.835 0.252,1.255"
           style="fill:#2a8dd1;fill-opacity:1;fill-rule:nonzero;stroke:none"
           id="path9688"
           inkscape:connector-curvature="0" /><path
           d="m 351.87,130.522 c 0.017,0.185 0.034,0.374 0.05,0.564 l -0.453,-0.551 z"
           style="fill:#747aa0;fill-opacity:1;fill-rule:nonzero;stroke:none"
           id="path9690"
           inkscape:connector-curvature="0" /><path
           d="m 242.86,206.673 c 5.276,-6.694 10.606,-13.42 15.352,-19.393 l 3.317,15.296 z"
           style="fill:#1477c7;fill-opacity:1;fill-rule:nonzero;stroke:none"
           id="path9692"
           inkscape:connector-curvature="0" /><path
           d="m 258.212,187.28 c 8.784,-11.051 15.57,-19.517 16.319,-20.407 0.129,-0.151 0.346,-0.461 0.633,-0.895 l -13.635,36.598 z"
           style="fill:#137ac9;fill-opacity:1;fill-rule:nonzero;stroke:none"
           id="path9694"
           inkscape:connector-curvature="0" /><path
           d="m 351.467,130.535 -0.107,1.974 c -0.054,-0.564 -0.108,-1.124 -0.163,-1.677 z"
           style="fill:#55a0d8;fill-opacity:1;fill-rule:nonzero;stroke:none"
           id="path9696"
           inkscape:connector-curvature="0" /><path
           d="m 341.355,162.093 c 3.674,0.717 8.272,1.174 8.272,1.174 0,0 -4.268,-1.669 -7.942,-2.497 -3.662,-0.831 -9.325,-0.7 -9.325,-0.7 0,0 5.334,1.325 8.995,2.023 m -16.502,-2.199 c 1.257,-0.104 2.064,-0.177 2.064,-0.177 0,0 -0.668,-0.079 -1.725,-0.198 l 16.007,-17.657 c 0.167,0.251 0.335,0.504 0.504,0.759 3.749,5.617 6.421,10.216 8.366,13.858 l -2.227,41.34 -40.324,-18.803 z"
           style="fill:#55a0d8;fill-opacity:1;fill-rule:nonzero;stroke:none"
           id="path9698"
           inkscape:connector-curvature="0" /><path
           d="m 349.671,132.517 0.602,-0.665 c 0.326,1.684 0.606,3.399 0.848,5.1 l -0.202,3.747 c -0.4,-3.25 -0.814,-5.918 -1.248,-8.182"
           style="fill:#55a0d8;fill-opacity:1;fill-rule:nonzero;stroke:none"
           id="path9700"
           inkscape:connector-curvature="0" /><path
           d="m 350.069,156.479 c 1.117,2.091 1.995,3.868 2.7,5.337 -0.146,-2.351 -0.331,-4.985 -0.514,-7.337 -0.435,-5.547 -0.876,-10.046 -1.336,-13.78 l 0.202,-3.747 c 1.061,7.446 1.412,14.638 1.764,17.877 0.291,2.705 0.384,5.625 0.417,8.108 0.334,0.683 0.61,1.269 0.848,1.784 -0.52,-6.539 -1.663,-20.526 -2.79,-32.212 l 0.107,-1.974 0.453,0.551 c 0.883,10.102 2.163,27.5 2.691,34.575 0.126,0.257 0.256,0.495 0.368,0.697 1.397,2.426 3.492,4.525 9.765,12.559 1.889,2.416 5.449,6.503 10.035,11.727 l -26.937,7.175 z"
           style="fill:#769abb;fill-opacity:1;fill-rule:nonzero;stroke:none"
           id="path9702"
           inkscape:connector-curvature="0" /><path
           d="m 280.366,164.852 c 0,0 4.107,-0.349 7.418,-1.6 3.307,-1.251 7.646,-3.313 7.646,-3.313 0,0 -4.448,0.243 -8.446,1.494 -3.995,1.251 -6.618,3.419 -6.618,3.419 m -18.837,37.724 13.635,-36.598 c 2.324,-3.514 9.438,-15.601 15.314,-25.638 l 17.04,38.676 z"
           style="fill:#2191d5;fill-opacity:1;fill-rule:nonzero;stroke:none"
           id="path9704"
           inkscape:connector-curvature="0" /><path
           d="m 239.555,231.347 -12.454,-4.541 c 4.696,-6.061 10.197,-13.078 15.759,-20.133 l 18.669,-4.097 z"
           style="fill:#0e87ce;fill-opacity:1;fill-rule:nonzero;stroke:none"
           id="path9706"
           inkscape:connector-curvature="0" /><path
           d="m 307.518,179.016 40.324,18.803 -24.919,43.721 z"
           style="fill:#76bfe4;fill-opacity:1;fill-rule:nonzero;stroke:none"
           id="path9708"
           inkscape:connector-curvature="0" /><path
           d="m 261.529,202.576 45.989,-23.56 15.405,62.524 z"
           style="fill:#58b2e0;fill-opacity:1;fill-rule:nonzero;stroke:none"
           id="path9710"
           inkscape:connector-curvature="0" /><path
           d="m 374.779,190.644 c 9.169,10.448 22.443,25.451 34.671,40.78 l -61.608,-33.605 z"
           style="fill:#afa4a6;fill-opacity:1;fill-rule:nonzero;stroke:none"
           id="path9712"
           inkscape:connector-curvature="0" /><path
           d="m 347.842,197.819 61.608,33.605 c 0.128,0.158 0.255,0.318 0.382,0.477 l -54.061,17.795 z"
           style="fill:#bfbfc2;fill-opacity:1;fill-rule:nonzero;stroke:none"
           id="path9714"
           inkscape:connector-curvature="0" /><path
           d="m 347.842,197.819 7.929,51.877 -32.848,-8.156 z"
           style="fill:#a3cce0;fill-opacity:1;fill-rule:nonzero;stroke:none"
           id="path9716"
           inkscape:connector-curvature="0" /><path
           d="m 239.555,231.347 21.974,-28.771 61.394,38.964 z"
           style="fill:#49afde;fill-opacity:1;fill-rule:nonzero;stroke:none"
           id="path9718"
           inkscape:connector-curvature="0" /><path
           d="m 219.882,236.21 c 2.037,-2.691 4.493,-5.887 7.219,-9.404 l 12.454,4.541 z"
           style="fill:#1573c4;fill-opacity:1;fill-rule:nonzero;stroke:none"
           id="path9720"
           inkscape:connector-curvature="0" /><path
           d="m 317.485,308.144 -77.93,-76.797 83.368,10.193 z"
           style="fill:#91ceea;fill-opacity:1;fill-rule:nonzero;stroke:none"
           id="path9722"
           inkscape:connector-curvature="0" /><path
           d="m 355.771,249.696 54.061,-17.795 c 0.088,0.111 0.176,0.222 0.265,0.333 l -7.206,70.7 z"
           style="fill:#d89c8c;fill-opacity:1;fill-rule:nonzero;stroke:none"
           id="path9724"
           inkscape:connector-curvature="0" /><path
           d="m 410.097,232.234 c 1.779,2.241 3.537,4.487 5.253,6.724 11.484,14.966 25.38,34.513 37.012,51.845 l -49.471,12.131 z"
           style="fill:#db5448;fill-opacity:1;fill-rule:nonzero;stroke:none"
           id="path9726"
           inkscape:connector-curvature="0" /><path
           d="m 207.613,287.981 31.942,-56.634 6.117,91.296 z"
           style="fill:#389dda;fill-opacity:1;fill-rule:nonzero;stroke:none"
           id="path9728"
           inkscape:connector-curvature="0" /><path
           d="m 245.672,322.643 -6.117,-91.296 77.93,76.797 z"
           style="fill:#7cc7e8;fill-opacity:1;fill-rule:nonzero;stroke:none"
           id="path9730"
           inkscape:connector-curvature="0" /><path
           d="m 207.613,287.981 -12.549,-18.324 c 9.466,-13.316 17.822,-24.082 22.752,-30.699 0.628,-0.843 1.319,-1.761 2.066,-2.748 l 19.673,-4.863 z"
           style="fill:#127dcb;fill-opacity:1;fill-rule:nonzero;stroke:none"
           id="path9732"
           inkscape:connector-curvature="0" /><path
           d="m 355.771,249.696 47.12,53.238 -26.28,4.53 z"
           style="fill:#e7b3a1;fill-opacity:1;fill-rule:nonzero;stroke:none"
           id="path9734"
           inkscape:connector-curvature="0" /><path
           d="m 322.923,241.54 32.848,8.156 -38.286,58.448 z"
           style="fill:#c3e3f1;fill-opacity:1;fill-rule:nonzero;stroke:none"
           id="path9736"
           inkscape:connector-curvature="0" /><path
           d="m 188.063,279.7 c 2.376,-3.481 4.721,-6.837 7.001,-10.043 l 12.549,18.324 z"
           style="fill:#1a66ba;fill-opacity:1;fill-rule:nonzero;stroke:none"
           id="path9738"
           inkscape:connector-curvature="0" /><path
           d="m 317.485,308.144 38.286,-58.448 20.84,57.768 z"
           style="fill:#e3dfdb;fill-opacity:1;fill-rule:nonzero;stroke:none"
           id="path9740"
           inkscape:connector-curvature="0" /><path
           d="m 173.021,302.993 c 4.959,-8.179 10.07,-16.012 15.042,-23.293 l 19.55,8.281 z"
           style="fill:#1f5ab1;fill-opacity:1;fill-rule:nonzero;stroke:none"
           id="path9742"
           inkscape:connector-curvature="0" /><path
           d="m 317.485,308.144 59.126,-0.68 -18.123,42.137 z"
           style="fill:#f3dbd0;fill-opacity:1;fill-rule:nonzero;stroke:none"
           id="path9744"
           inkscape:connector-curvature="0" /><path
           d="m 402.891,302.934 49.471,-12.131 c 2.438,3.63 4.772,7.16 6.967,10.532 l -11.808,56.648 z"
           style="fill:#e83731;fill-opacity:1;fill-rule:nonzero;stroke:none"
           id="path9746"
           inkscape:connector-curvature="0" /><path
           d="m 459.329,301.335 c 5.161,7.932 9.536,14.983 12.565,20.335 3.793,6.709 8.275,15.709 12.347,26.384 l -36.72,9.929 z"
           style="fill:#e21e25;fill-opacity:1;fill-rule:nonzero;stroke:none"
           id="path9748"
           inkscape:connector-curvature="0" /><path
           d="M 202.176,349.601 158.292,329.6 c 4.513,-9.093 9.536,-18.039 14.729,-26.607 l 34.592,-15.012 z"
           style="fill:#206cbe;fill-opacity:1;fill-rule:nonzero;stroke:none"
           id="path9750"
           inkscape:connector-curvature="0" /><path
           d="m 202.176,349.601 5.437,-61.62 38.059,34.662 z"
           style="fill:#439ad7;fill-opacity:1;fill-rule:nonzero;stroke:none"
           id="path9752"
           inkscape:connector-curvature="0" /><path
           d="m 245.672,322.643 71.813,-14.499 -9.741,48.253 z"
           style="fill:#c3def2;fill-opacity:1;fill-rule:nonzero;stroke:none"
           id="path9754"
           inkscape:connector-curvature="0" /><path
           d="m 402.891,302.934 44.63,55.049 -38.74,1.586 z"
           style="fill:#f25635;fill-opacity:1;fill-rule:nonzero;stroke:none"
           id="path9756"
           inkscape:connector-curvature="0" /><path
           d="m 376.611,307.464 26.28,-4.53 5.89,56.635 z"
           style="fill:#f28c6d;fill-opacity:1;fill-rule:nonzero;stroke:none"
           id="path9758"
           inkscape:connector-curvature="0" /><path
           d="m 151.019,345.534 c 2.209,-5.329 4.654,-10.656 7.273,-15.934 l 43.884,20.001 z"
           style="fill:#2353ab;fill-opacity:1;fill-rule:nonzero;stroke:none"
           id="path9760"
           inkscape:connector-curvature="0" /><path
           d="m 307.744,356.397 9.741,-48.253 41.003,41.457 z"
           style="fill:#f4f2ef;fill-opacity:1;fill-rule:nonzero;stroke:none"
           id="path9762"
           inkscape:connector-curvature="0" /><path
           d="m 376.611,307.464 32.17,52.105 -50.293,-9.968 z"
           style="fill:#f7a884;fill-opacity:1;fill-rule:nonzero;stroke:none"
           id="path9764"
           inkscape:connector-curvature="0" /><path
           d="m 234.345,376.786 -32.169,-27.185 43.496,-26.958 z"
           style="fill:#63a3d1;fill-opacity:1;fill-rule:nonzero;stroke:none"
           id="path9766"
           inkscape:connector-curvature="0" /><path
           d="m 234.345,376.786 11.327,-54.143 62.072,33.754 z"
           style="fill:#a4c8db;fill-opacity:1;fill-rule:nonzero;stroke:none"
           id="path9768"
           inkscape:connector-curvature="0" /><path
           d="m 265.154,407.143 -30.809,-30.357 54.596,23.334 z"
           style="fill:#c0bdbc;fill-opacity:1;fill-rule:nonzero;stroke:none"
           id="path9770"
           inkscape:connector-curvature="0" /><path
           d="m 288.941,400.12 -54.596,-23.334 73.399,-20.389 z"
           style="fill:#d1cbce;fill-opacity:1;fill-rule:nonzero;stroke:none"
           id="path9772"
           inkscape:connector-curvature="0" /><path
           d="m 136.252,400.346 65.924,-50.745 -3.398,45.535 z"
           style="fill:#4962ad;fill-opacity:1;fill-rule:nonzero;stroke:none"
           id="path9774"
           inkscape:connector-curvature="0" /><path
           d="m 358.488,349.601 -2.717,49.386 -48.027,-42.59 z"
           style="fill:#f6c9b1;fill-opacity:1;fill-rule:nonzero;stroke:none"
           id="path9776"
           inkscape:connector-curvature="0" /><path
           d="m 136.252,400.346 -0.122,-0.853 c 1.427,-13.19 5.204,-28.788 12.578,-48.158 0.736,-1.933 1.509,-3.867 2.311,-5.801 l 51.157,4.067 z"
           style="fill:#344da7;fill-opacity:1;fill-rule:nonzero;stroke:none"
           id="path9778"
           inkscape:connector-curvature="0" /><path
           d="m 447.521,357.983 36.72,-9.929 c 2.211,5.791 4.3,12.075 6.093,18.757 l -29.674,41.011 z"
           style="fill:#e21e25;fill-opacity:1;fill-rule:nonzero;stroke:none"
           id="path9780"
           inkscape:connector-curvature="0" /><path
           d="m 490.334,366.811 c 3.771,14.047 6.234,29.846 5.764,46.481 l -35.438,-5.47 z"
           style="fill:#d71e26;fill-opacity:1;fill-rule:nonzero;stroke:none"
           id="path9782"
           inkscape:connector-curvature="0" /><path
           d="m 358.488,349.601 50.293,9.968 -53.01,39.418 z"
           style="fill:#f89c72;fill-opacity:1;fill-rule:nonzero;stroke:none"
           id="path9784"
           inkscape:connector-curvature="0" /><path
           d="m 198.778,395.136 3.398,-45.535 32.169,27.185 z"
           style="fill:#5b8abd;fill-opacity:1;fill-rule:nonzero;stroke:none"
           id="path9786"
           inkscape:connector-curvature="0" /><path
           d="m 408.781,359.569 18.803,49.613 -71.813,-10.195 z"
           style="fill:#f35e32;fill-opacity:1;fill-rule:nonzero;stroke:none"
           id="path9788"
           inkscape:connector-curvature="0" /><path
           d="m 408.781,359.569 38.74,-1.586 -19.937,51.199 z"
           style="fill:#ee2922;fill-opacity:1;fill-rule:nonzero;stroke:none"
           id="path9790"
           inkscape:connector-curvature="0" /><path
           d="m 307.744,356.397 48.027,42.59 -66.83,1.133 z"
           style="fill:#eec6b3;fill-opacity:1;fill-rule:nonzero;stroke:none"
           id="path9792"
           inkscape:connector-curvature="0" /><path
           d="m 447.521,357.983 13.139,49.839 -33.076,1.36 z"
           style="fill:#ec1c24;fill-opacity:1;fill-rule:nonzero;stroke:none"
           id="path9794"
           inkscape:connector-curvature="0" /><path
           d="m 265.154,407.143 -66.376,-12.007 35.567,-18.35 z"
           style="fill:#8d9fb6;fill-opacity:1;fill-rule:nonzero;stroke:none"
           id="path9796"
           inkscape:connector-curvature="0" /><path
           d="m 460.66,407.822 35.438,5.47 c -0.033,1.098 -0.074,2.2 -0.13,3.305 -0.313,6.104 -1.217,11.815 -2.522,17.12 l -27.802,12.391 z"
           style="fill:#d91e26;fill-opacity:1;fill-rule:nonzero;stroke:none"
           id="path9798"
           inkscape:connector-curvature="0" /><path
           d="m 427.584,409.182 -30.811,47.572 -41.002,-57.767 z"
           style="fill:#f0411e;fill-opacity:1;fill-rule:nonzero;stroke:none"
           id="path9800"
           inkscape:connector-curvature="0" /><path
           d="m 355.771,398.987 41.002,57.767 -36.472,-1.131 z"
           style="fill:#f2562a;fill-opacity:1;fill-rule:nonzero;stroke:none"
           id="path9802"
           inkscape:connector-curvature="0" /><path
           d="m 355.771,398.987 -42.59,72.267 -24.24,-71.134 z"
           style="fill:#f09278;fill-opacity:1;fill-rule:nonzero;stroke:none"
           id="path9804"
           inkscape:connector-curvature="0" /><path
           d="m 360.301,455.623 -47.12,15.631 42.59,-72.267 z"
           style="fill:#f46c45;fill-opacity:1;fill-rule:nonzero;stroke:none"
           id="path9806"
           inkscape:connector-curvature="0" /><path
           d="m 266.287,446.334 -67.509,-51.198 66.376,12.007 z"
           style="fill:#a99a9f;fill-opacity:1;fill-rule:nonzero;stroke:none"
           id="path9808"
           inkscape:connector-curvature="0" /><path
           d="m 189.037,472.613 9.741,-77.477 67.509,51.198 z"
           style="fill:#8e6a86;fill-opacity:1;fill-rule:nonzero;stroke:none"
           id="path9810"
           inkscape:connector-curvature="0" /><path
           d="m 198.778,395.136 -57.572,51.425 c -0.179,-0.564 -0.355,-1.128 -0.524,-1.691 -2.262,-7.496 -4.117,-15.32 -4.875,-24.227 l 0.445,-20.297 z"
           style="fill:#583989;fill-opacity:1;fill-rule:nonzero;stroke:none"
           id="path9812"
           inkscape:connector-curvature="0" /><path
           d="m 189.037,472.613 -44.534,-17.027 c -1.237,-2.991 -2.336,-6.008 -3.297,-9.025 l 57.572,-51.425 z"
           style="fill:#743a80;fill-opacity:1;fill-rule:nonzero;stroke:none"
           id="path9814"
           inkscape:connector-curvature="0" /><path
           d="m 465.644,446.108 27.802,-12.391 c -1.753,7.132 -4.232,13.52 -6.995,19.116 z"
           style="fill:#cb1f26;fill-opacity:1;fill-rule:nonzero;stroke:none"
           id="path9816"
           inkscape:connector-curvature="0" /><path
           d="m 313.181,471.254 -46.894,-24.92 22.654,-46.214 z"
           style="fill:#dc7e6a;fill-opacity:1;fill-rule:nonzero;stroke:none"
           id="path9818"
           inkscape:connector-curvature="0" /><path
           d="m 266.287,446.334 -1.133,-39.191 23.787,-7.023 z"
           style="fill:#ca9f90;fill-opacity:1;fill-rule:nonzero;stroke:none"
           id="path9820"
           inkscape:connector-curvature="0" /><path
           d="m 460.66,407.822 4.984,38.286 -38.06,-36.926 z"
           style="fill:#e81d25;fill-opacity:1;fill-rule:nonzero;stroke:none"
           id="path9822"
           inkscape:connector-curvature="0" /><path
           d="m 427.584,409.182 38.06,36.926 -68.871,10.646 z"
           style="fill:#ed1c24;fill-opacity:1;fill-rule:nonzero;stroke:none"
           id="path9824"
           inkscape:connector-curvature="0" /><path
           d="m 396.773,456.754 57.446,47.447 c -6.026,8.248 -15.021,17.653 -28.354,26.51 l -10.74,3.747 z"
           style="fill:#e11d25;fill-opacity:1;fill-rule:nonzero;stroke:none"
           id="path9826"
           inkscape:connector-curvature="0" /><path
           d="m 164.452,486.554 c -8.654,-8.857 -15.287,-19.708 -19.949,-30.968 l 44.534,17.027 z"
           style="fill:#69245a;fill-opacity:1;fill-rule:nonzero;stroke:none"
           id="path9828"
           inkscape:connector-curvature="0" /><path
           d="m 217.807,520.639 -28.77,-48.026 77.25,-26.279 z"
           style="fill:#953b57;fill-opacity:1;fill-rule:nonzero;stroke:none"
           id="path9830"
           inkscape:connector-curvature="0" /><path
           d="m 313.181,471.254 -52.104,59.807 5.21,-84.727 z"
           style="fill:#cd4041;fill-opacity:1;fill-rule:nonzero;stroke:none"
           id="path9832"
           inkscape:connector-curvature="0" /><path
           d="m 261.077,531.061 -43.27,-10.422 48.48,-74.305 z"
           style="fill:#ad2d43;fill-opacity:1;fill-rule:nonzero;stroke:none"
           id="path9834"
           inkscape:connector-curvature="0" /><path
           d="m 465.644,446.108 1.303,33.478 c -0.634,0.587 -0.992,0.888 -0.992,0.888 0,0 -1.961,10.34 -11.736,23.727 l -57.446,-47.447 z"
           style="fill:#e21d25;fill-opacity:1;fill-rule:nonzero;stroke:none"
           id="path9836"
           inkscape:connector-curvature="0" /><path
           d="m 486.451,452.833 c -7.278,14.742 -16.505,23.979 -19.504,26.753 l -1.303,-33.478 z"
           style="fill:#cd1f26;fill-opacity:1;fill-rule:nonzero;stroke:none"
           id="path9838"
           inkscape:connector-curvature="0" /><path
           d="m 396.773,456.754 -29.449,51.879 -7.023,-53.01 z"
           style="fill:#ed1d24;fill-opacity:1;fill-rule:nonzero;stroke:none"
           id="path9840"
           inkscape:connector-curvature="0" /><path
           d="m 360.301,455.623 7.023,53.01 -54.143,-37.379 z"
           style="fill:#ef3525;fill-opacity:1;fill-rule:nonzero;stroke:none"
           id="path9842"
           inkscape:connector-curvature="0" /><path
           d="m 415.125,534.458 -47.801,-25.825 29.449,-51.879 z"
           style="fill:#eb1c24;fill-opacity:1;fill-rule:nonzero;stroke:none"
           id="path9844"
           inkscape:connector-curvature="0" /><path
           d="m 316.126,519.053 -55.049,12.008 52.104,-59.807 z"
           style="fill:#d71d2e;fill-opacity:1;fill-rule:nonzero;stroke:none"
           id="path9846"
           inkscape:connector-curvature="0" /><path
           d="m 367.324,508.633 -51.198,10.42 -2.945,-47.799 z"
           style="fill:#ed2529;fill-opacity:1;fill-rule:nonzero;stroke:none"
           id="path9848"
           inkscape:connector-curvature="0" /><path
           d="m 217.807,520.639 -26.793,-6.062 c -4.345,-5.903 -6.182,-10.845 -8.108,-14.214 -6.937,-3.581 -13.083,-8.311 -18.454,-13.809 l 24.585,-13.941 z"
           style="fill:#732353;fill-opacity:1;fill-rule:nonzero;stroke:none"
           id="path9850"
           inkscape:connector-curvature="0" /><path
           d="m 367.324,508.633 -25.373,46.039 c -1.447,0.625 -2.966,1.201 -4.555,1.711 l -21.27,-37.33 z"
           style="fill:#e61d25;fill-opacity:1;fill-rule:nonzero;stroke:none"
           id="path9852"
           inkscape:connector-curvature="0" /><path
           d="m 214.755,534.924 c -12.32,-7.352 -19.327,-14.347 -23.741,-20.347 l 26.793,6.062 z"
           style="fill:#6f2144;fill-opacity:1;fill-rule:nonzero;stroke:none"
           id="path9854"
           inkscape:connector-curvature="0" /><path
           d="m 415.125,534.458 -25.384,8.411 c -15.995,1.031 -27.795,-3.067 -27.795,-3.067 0,0 -7.166,9.332 -19.995,14.87 l 25.373,-46.039 z"
           style="fill:#e61d25;fill-opacity:1;fill-rule:nonzero;stroke:none"
           id="path9856"
           inkscape:connector-curvature="0" /><path
           d="m 414.978,536.753 c -8.822,3.927 -17.517,5.619 -25.237,6.116 l 25.384,-8.411 z"
           style="fill:#da1e25;fill-opacity:1;fill-rule:nonzero;stroke:none"
           id="path9858"
           inkscape:connector-curvature="0" /><path
           d="m 261.077,531.061 -10.281,16.021 c -7.714,-0.474 -16.438,-2.352 -25.761,-6.656 l -7.228,-19.787 z"
           style="fill:#992134;fill-opacity:1;fill-rule:nonzero;stroke:none"
           id="path9860"
           inkscape:connector-curvature="0" /><path
           d="m 316.126,519.053 -6.275,38.022 C 292.165,552.64 283.423,540.5 283.423,540.5 c 0,0 -4.377,2.601 -11.843,4.564 l -10.503,-14.003 z"
           style="fill:#cc2027;fill-opacity:1;fill-rule:nonzero;stroke:none"
           id="path9862"
           inkscape:connector-curvature="0" /><path
           d="m 425.865,530.711 c -0.36,0.238 -0.719,0.479 -1.085,0.717 -2.693,1.752 -5.405,3.253 -8.108,4.543 l -1.547,-1.513 z"
           style="fill:#c61f26;fill-opacity:1;fill-rule:nonzero;stroke:none"
           id="path9864"
           inkscape:connector-curvature="0" /><path
           d="m 337.396,556.383 c -4.711,1.51 -10.037,2.431 -15.923,2.27 -4.231,-0.116 -8.102,-0.695 -11.622,-1.578 l 6.275,-38.022 z"
           style="fill:#d81f26;fill-opacity:1;fill-rule:nonzero;stroke:none"
           id="path9866"
           inkscape:connector-curvature="0" /><path
           d="m 225.035,540.426 c -1.35,-0.623 -2.712,-1.292 -4.086,-2.021 -2.204,-1.167 -4.262,-2.329 -6.194,-3.481 l 3.052,-14.285 z"
           style="fill:#832032;fill-opacity:1;fill-rule:nonzero;stroke:none"
           id="path9868"
           inkscape:connector-curvature="0" /><path
           d="m 416.672,535.971 c -0.566,0.27 -1.131,0.531 -1.694,0.782 l 0.147,-2.295 z"
           style="fill:#c42026;fill-opacity:1;fill-rule:nonzero;stroke:none"
           id="path9870"
           inkscape:connector-curvature="0" /><path
           d="m 271.58,545.064 c -5.448,1.433 -12.539,2.524 -20.784,2.018 l 10.281,-16.021 z"
           style="fill:#b02228;fill-opacity:1;fill-rule:nonzero;stroke:none"
           id="path9872"
           inkscape:connector-curvature="0" /></g></g></g></svg>