<?xml version="1.0" encoding="UTF-8" standalone="no"?>
<!-- Created with Inkscape (http://www.inkscape.org/) -->

<svg
   xmlns:dc="http://purl.org/dc/elements/1.1/"
   xmlns:cc="http://creativecommons.org/ns#"
   xmlns:rdf="http://www.w3.org/1999/02/22-rdf-syntax-ns#"
   xmlns:svg="http://www.w3.org/2000/svg"
   xmlns="http://www.w3.org/2000/svg"
   xmlns:sodipodi="http://sodipodi.sourceforge.net/DTD/sodipodi-0.dtd"
   xmlns:inkscape="http://www.inkscape.org/namespaces/inkscape"
   version="1.1"
   id="svg4747"
   xml:space="preserve"
   width="800"
   height="800"
   viewBox="0 0 800 800"
   sodipodi:docname="airplane-outline-color-pdv.svg"
   inkscape:version="0.92.4 (5da689c313, 2019-01-14)"><metadata
     id="metadata4753"><rdf:RDF><cc:Work
         rdf:about=""><dc:format>image/svg+xml</dc:format><dc:type
           rdf:resource="http://purl.org/dc/dcmitype/StillImage" /><dc:title></dc:title></cc:Work></rdf:RDF></metadata><defs
     id="defs4751"><clipPath
       clipPathUnits="userSpaceOnUse"
       id="clipPath4763"><path
         d="M 0,600 H 600 V 0 H 0 Z"
         id="path4761"
         inkscape:connector-curvature="0" /></clipPath></defs><sodipodi:namedview
     pagecolor="#ffffff"
     bordercolor="#666666"
     borderopacity="1"
     objecttolerance="10"
     gridtolerance="10"
     guidetolerance="10"
     inkscape:pageopacity="0"
     inkscape:pageshadow="2"
     inkscape:window-width="1920"
     inkscape:window-height="1018"
     id="namedview4749"
     showgrid="false"
     inkscape:zoom="1.078549"
     inkscape:cx="402.03718"
     inkscape:cy="381.96173"
     inkscape:window-x="-8"
     inkscape:window-y="-8"
     inkscape:window-maximized="1"
     inkscape:current-layer="g4755" /><g
     id="g4755"
     inkscape:groupmode="layer"
     inkscape:label="airplane-outline-color-pdv"
     transform="matrix(1.3333333,0,0,-1.3333333,0,800)"><path
       d="m 502.9,170.164 0.076,-4.3 2.147,0.076 0.398,2.691 c 0,0 2.744,-1.915 2.744,-3.448 0,-1.537 0.848,5.197 0.919,8.271 0.092,3.14 -0.611,6.139 -0.611,6.139 0,0 2.219,-0.692 2.003,2.22 -0.146,1.857 -5.907,10.344 -5.907,10.344 0,0 -0.417,1.262 -0.34,2.166 0.042,0.513 -0.243,0.94 -0.627,1.313 l -2.634,-24.642 z"
       style="fill:#00cfff;fill-opacity:1;fill-rule:nonzero;stroke:none"
       id="path4765"
       inkscape:connector-curvature="0" /><path
       d="m 396.899,275.644 -0.271,-0.429 1.305,-0.365 z"
       style="fill:#14aa8c;fill-opacity:1;fill-rule:nonzero;stroke:none"
       id="path4767"
       inkscape:connector-curvature="0" /><path
       d="m 399.517,274.404 12.812,-3.601 c -4.227,3.335 -8.363,6.605 -12.333,9.75 l -2.768,-4.389 z"
       style="fill:#14aa8c;fill-opacity:1;fill-rule:nonzero;stroke:none"
       id="path4769"
       inkscape:connector-curvature="0" /><path
       d="m 382.649,221.19 c 21.67,-9.67 54.081,-24.047 54.493,-24.195 0.47,0.288 0.238,2.746 0.308,6.427 0.309,-0.07 0.379,-3.757 0.379,-3.757 l 29.828,-13.522 -71.029,89.072 z"
       style="fill:#05acc8;fill-opacity:1;fill-rule:nonzero;stroke:none"
       id="path4771"
       inkscape:connector-curvature="0" /><path
       d="m 404.397,270.664 9.988,-7.654 -0.325,-0.526 -10.026,7.67 z m 10.475,-8.017 10.057,-7.73 -0.347,-0.504 -10.034,7.688 z m 10.544,-8.093 10.16,-7.779 -0.41,-0.449 -10.097,7.724 z m 10.653,-8.158 10.052,-7.713 -0.356,-0.503 -10.113,7.767 z m 10.539,-8.092 9.718,-7.437 -0.38,-0.488 -9.693,7.437 z m 10.205,-7.795 9.586,-7.374 -0.364,-0.497 -9.601,7.362 z m 10.074,-7.751 10.458,-7.996 -0.33,-0.525 -10.487,8.034 z m 10.945,-8.375 8.195,-6.284 -0.379,-0.487 -8.141,6.246 z m 8.681,-6.663 8.181,-6.264 -0.417,-0.448 -8.142,6.246 z m 8.668,-6.626 4.313,-3.323 -0.362,-0.488 -4.368,3.346 z m -91.287,69.949 -0.346,-0.51 -5.615,4.317 -1.305,0.365 71.029,-89.072 33.411,-15.149 2.634,24.642 c -0.395,0.387 -0.894,0.717 -1.236,1.02 -0.395,0.339 0.038,2.235 0.038,2.235 0,0 -21.561,18.485 -58.932,47.451 -10.251,7.951 -21.016,16.395 -31.243,24.461 l -12.812,3.601 z"
       style="fill:#0bc2c6;fill-opacity:1;fill-rule:nonzero;stroke:none"
       id="path4773"
       inkscape:connector-curvature="0" /><path
       d="m 366.11,322.282 c 0.472,1.376 1.646,11.336 1.446,20.333 -0.217,8.99 -0.72,13.705 -1.332,15.13 -0.616,1.422 -2.691,2.056 -5.311,2.435 -2.761,0.418 -13.467,0.162 -16.049,-0.201 -2.441,-0.34 -3.995,-0.703 -4.39,-4.189 -0.057,-0.474 -0.109,-1.111 -0.155,-1.864 l 24.076,-33.653 c 0.652,0.41 1.4,1.06 1.715,2.009"
       style="fill:#138e8c;fill-opacity:1;fill-rule:nonzero;stroke:none"
       id="path4775"
       inkscape:connector-curvature="0" /><path
       d="m 395.62,276.626 1.008,-1.411 0.271,0.429 z"
       style="fill:#138e8c;fill-opacity:1;fill-rule:nonzero;stroke:none"
       id="path4777"
       inkscape:connector-curvature="0" /><path
       d="m 397.228,276.164 2.768,4.389 c -6.02,4.769 -11.657,9.25 -16.644,13.224 l 11.044,-15.437 z"
       style="fill:#138e8c;fill-opacity:1;fill-rule:nonzero;stroke:none"
       id="path4779"
       inkscape:connector-curvature="0" /><path
       d="m 351.354,46.055 8.763,-2.136 c 0,0 -0.07,16.18 -0.07,18.632 0,1.862 -0.091,3.268 -4.151,6.36 -1.379,1.048 -7.777,5.802 -15.784,11.755 l -0.252,0.009 z"
       style="fill:#008ef2;fill-opacity:1;fill-rule:nonzero;stroke:none"
       id="path4781"
       inkscape:connector-curvature="0" /><path
       d="m 340.112,80.666 c -0.067,0.049 -0.135,0.1 -0.202,0.15 l -0.05,-0.141 z"
       style="fill:#009bdf;fill-opacity:1;fill-rule:nonzero;stroke:none"
       id="path4783"
       inkscape:connector-curvature="0" /><path
       d="m 299.686,535.761 c -5.868,24.823 -10.274,29.733 -12.531,33.312 -2.074,3.307 -6.788,5.883 -8.753,5.927 h -0.039 -0.038 c -1.964,-0.044 -6.679,-2.62 -8.752,-5.927 -1.526,-2.42 -4.034,-5.448 -7.312,-14.826 l 39.884,-29.794 c -0.707,3.613 -1.519,7.332 -2.459,11.308"
       style="fill:#052b8c;fill-opacity:1;fill-rule:nonzero;stroke:none"
       id="path4785"
       inkscape:connector-curvature="0" /><path
       d="m 302.145,524.453 -39.884,29.794 c -1.572,-4.493 -3.319,-10.444 -5.22,-18.486 -5.315,-22.487 -6.613,-36.827 -6.838,-69.678 l 56.323,-0.134 c -0.183,27.131 -1.094,41.652 -4.381,58.504"
       style="fill:#0b2a8c;fill-opacity:1;fill-rule:nonzero;stroke:none"
       id="path4787"
       inkscape:connector-curvature="0" /><path
       d="m 275.456,275.88 29.255,-40.566 c 0.041,1.869 0.134,2.959 0.302,3.066 1.065,0.682 39.774,-4.753 39.774,-4.753 l 0.077,2.442 18.394,-2.746 c 0,0 -0.379,-3.138 0.307,-3.539 0.509,-0.284 8.521,-3.88 19.084,-8.594 l 13.979,54.025 z"
       style="fill:#10778c;fill-opacity:1;fill-rule:nonzero;stroke:none"
       id="path4789"
       inkscape:connector-curvature="0" /><path
       d="m 359.604,305.004 9.185,-7.059 -0.232,-0.594 -9.331,7.166 z m 9.696,-7.438 2.613,-2.002 -0.27,-0.585 -2.582,1.993 z m 3.105,-2.38 11.373,-8.705 -0.325,-0.543 -11.302,8.662 z m 11.862,-9.083 9.57,-7.352 -0.379,-0.487 -9.518,7.296 z m 12.361,-10.888 -1.008,1.411 -1.659,1.275 0.362,0.493 0.073,-0.054 -11.044,15.437 c -12.702,10.113 -21.209,16.95 -21.209,16.95 0,0 0,2.041 0.394,4.909 0.418,2.858 0.721,4.081 0.721,4.081 0,0 0.526,0.173 1.137,0.556 l -24.076,33.653 c -0.284,-4.747 -0.328,-14.238 -0.062,-18.461 0.217,-3.503 1.138,-7.455 0.612,-7.677 -0.504,-0.2 -9.388,8.487 -14.296,11.958 -1.305,0.923 -2.853,2.114 -4.443,3.407 L 275.456,275.88 Z"
       style="fill:#147f8c;fill-opacity:1;fill-rule:nonzero;stroke:none"
       id="path4791"
       inkscape:connector-curvature="0" /><path
       d="m 306.55,441.946 c 0.022,9.033 0.023,16.943 -0.024,24.003 l -56.323,0.134 c -0.021,-3.03 -0.033,-6.22 -0.037,-9.587 l 56.059,-62.843 c 0.151,12.378 0.269,28 0.325,48.293"
       style="fill:#12538c;fill-opacity:1;fill-rule:nonzero;stroke:none"
       id="path4793"
       inkscape:connector-curvature="0" /><path
       d="m 251.896,217.063 c -0.179,-14.537 -0.338,-33.853 0.664,-49.206 0.233,-3.572 0.488,-6.937 0.757,-10.098 l 49.866,-2.554 c 0.351,3.887 0.682,8.1 0.979,12.652 1.562,23.848 0.317,57.263 0.549,67.457 l -29.255,40.566 z"
       style="fill:#0a418c;fill-opacity:1;fill-rule:nonzero;stroke:none"
       id="path4795"
       inkscape:connector-curvature="0" /><path
       d="m 321.196,53.404 30.158,-7.349 -11.494,34.62 z"
       style="fill:#002cb0;fill-opacity:1;fill-rule:nonzero;stroke:none"
       id="path4797"
       inkscape:connector-curvature="0" /><path
       d="m 255.163,140.342 84.697,-59.667 0.05,0.141 c -15.993,11.892 -38.25,28.449 -39.878,29.874 -2.458,2.149 -3.523,3.269 -2.224,8.342 1.152,4.574 3.546,15.982 5.375,36.173 l -49.866,2.554 c 0.57,-6.692 1.204,-12.476 1.846,-17.417"
       style="fill:#004c8c;fill-opacity:1;fill-rule:nonzero;stroke:none"
       id="path4799"
       inkscape:connector-curvature="0" /><path
       d="m 322.13,343.153 c -4.4,3.575 -9.115,7.927 -9.859,9.573 -1.028,2.252 -1.136,2.561 -1.753,0.52 -0.613,-2.058 -0.504,-4.098 0.308,-5.521 0.834,-1.429 1.229,-3.27 0.417,-4.082 -0.309,-0.308 -2.761,1.732 -3.378,2.961 -0.611,1.229 0,3.578 -0.395,4.584 -0.416,1.029 -2.024,3.991 -1.949,6.448 0.008,0.28 0.016,0.564 0.024,0.849 l -55.606,-5.772 c -0.287,-0.655 -0.546,-1.191 -0.682,-1.525 -0.395,-1.006 0.217,-3.355 -0.395,-4.584 -0.617,-1.229 -3.069,-3.269 -3.378,-2.961 -0.812,0.812 -0.416,2.653 0.417,4.082 0.694,1.214 0.87,2.881 0.523,4.623 l -2.344,-0.244 c -0.66,-0.932 -1.958,-2.289 -3.565,-3.802 l 34.941,-72.422 z"
       style="fill:#14648c;fill-opacity:1;fill-rule:nonzero;stroke:none"
       id="path4801"
       inkscape:connector-curvature="0" /><path
       d="m 306.225,393.653 -56.059,62.843 c -0.007,-4.515 -0.001,-9.344 0.012,-14.55 0.13,-47.82 0.616,-69.705 1.029,-84.31 0.05,-1.662 -0.668,-3.553 -1.268,-4.923 l 55.606,5.772 c 0.23,8.286 0.482,18.938 0.68,35.168"
       style="fill:#12508c;fill-opacity:1;fill-rule:nonzero;stroke:none"
       id="path4803"
       inkscape:connector-curvature="0" /><path
       d="m 246.205,353.246 c -0.612,2.041 -0.721,1.732 -1.749,-0.52 -0.08,-0.176 -0.209,-0.387 -0.376,-0.622 l 2.344,0.244 c -0.06,0.298 -0.129,0.597 -0.219,0.898"
       style="fill:#12508c;fill-opacity:1;fill-rule:nonzero;stroke:none"
       id="path4805"
       inkscape:connector-curvature="0" /><path
       d="m 233.626,53.12 0.082,-0.156 31.491,7.677 c 0,0 0.401,-6.828 1.392,-7.817 0.995,-0.991 3.068,-0.612 3.068,-0.612 0,0 1.375,-14.178 2.133,-15.114 0.774,-0.904 2.073,-1.373 2.073,-1.373 0,0 3.053,-14.627 4.46,-15.006 v -0.017 h 0.077 v 0.017 c 1.408,0.379 4.454,15.006 4.454,15.006 0,0 1.306,0.469 2.08,1.373 0.757,0.921 2.131,15.114 2.131,15.114 0,0 2.075,-0.379 3.071,0.612 0.989,0.989 1.368,7.817 1.368,7.817 l 29.69,-7.237 18.664,27.271 z"
       style="fill:#00088c;fill-opacity:1;fill-rule:nonzero;stroke:none"
       id="path4807"
       inkscape:connector-curvature="0" /><path
       d="m 339.86,80.675 -84.697,59.667 c 1.447,-11.15 2.925,-18.01 3.757,-21.31 1.278,-5.073 0.233,-6.193 -2.225,-8.342 -1.152,-1.009 -12.621,-9.585 -24.895,-18.726 l 1.826,-38.844 z"
       style="fill:#001e8c;fill-opacity:1;fill-rule:nonzero;stroke:none"
       id="path4809"
       inkscape:connector-curvature="0" /><path
       d="m 216.259,355.79 c -0.406,3.486 -1.943,3.849 -4.396,4.189 -2.576,0.363 -13.283,0.619 -16.044,0.201 -1.397,-0.201 -2.635,-0.477 -3.582,-0.903 l 24.071,-3.971 c -0.016,0.173 -0.032,0.338 -0.049,0.484"
       style="fill:#0f3e8c;fill-opacity:1;fill-rule:nonzero;stroke:none"
       id="path4811"
       inkscape:connector-curvature="0" /><path
       d="m 187.429,297.566 0.238,-0.594 -2.576,-1.971 -0.266,0.563 z m 9.705,7.438 0.379,-0.487 -9.337,-7.166 -0.244,0.594 z m -12.807,-9.818 0.266,-0.586 -7.863,-6.019 98.726,-12.701 -34.941,72.422 c -3.114,-2.932 -7.376,-6.442 -10.36,-8.556 -4.905,-3.471 -13.793,-12.158 -14.308,-11.958 -0.419,0.183 0.124,2.91 0.451,5.827 l -22.172,-17.584 c 0.02,-0.13 0.039,-0.258 0.058,-0.395 0.412,-2.868 0.412,-4.909 0.412,-4.909 0,0 -10.866,-8.727 -26.367,-21.052 l 7.625,-0.98 z"
       style="fill:#144e8c;fill-opacity:1;fill-rule:nonzero;stroke:none"
       id="path4813"
       inkscape:connector-curvature="0" /><path
       d="m 172.473,286.103 0.319,-0.543 -6.028,-4.62 26.051,-51.325 c 0.181,0.084 0.298,0.141 0.346,0.169 0.688,0.401 0.303,3.539 0.303,3.539 l 18.399,2.746 0.076,-2.442 c 0,0 38.709,5.435 39.776,4.753 0.493,-0.314 0.33,-9.137 0.181,-21.317 l 23.56,58.817 -98.726,12.701 -3.451,-2.643 -0.314,0.543 2.889,2.214 -7.625,0.98 c -1.367,-1.087 -2.769,-2.2 -4.203,-3.339 l 2.454,-4.836 z"
       style="fill:#113f8c;fill-opacity:1;fill-rule:nonzero;stroke:none"
       id="path4815"
       inkscape:connector-curvature="0" /><path
       d="m 196.612,44.467 c -0.002,-0.352 -0.003,-0.548 -0.003,-0.548 l 37.099,9.045 -0.082,0.156 z"
       style="fill:#000092;fill-opacity:1;fill-rule:nonzero;stroke:none"
       id="path4817"
       inkscape:connector-curvature="0" /><path
       d="m 162.415,278.394 0.363,-0.493 -0.889,-0.681 -0.136,-61.519 c 14.933,6.646 28.659,12.779 31.062,13.914 l -26.051,51.325 -3.494,-2.676 -0.369,0.487 3.579,2.749 -2.454,4.836 c -0.701,-0.556 -1.405,-1.116 -2.12,-1.685 l -0.015,-6.659 z"
       style="fill:#07138c;fill-opacity:1;fill-rule:nonzero;stroke:none"
       id="path4819"
       inkscape:connector-curvature="0" /><path
       d="m 231.8,91.964 c -6.487,-4.83 -13.197,-9.818 -18.729,-13.931 L 233.626,53.12 Z"
       style="fill:#000b8c;fill-opacity:1;fill-rule:nonzero;stroke:none"
       id="path4821"
       inkscape:connector-curvature="0" /><path
       d="m 216.464,335.465 c 0.296,4.687 0.214,15.864 -0.156,19.841 l -24.071,3.971 c -0.833,-0.375 -1.442,-0.866 -1.728,-1.532 -0.617,-1.445 -1.126,-6.14 -1.331,-15.13 -0.201,-8.997 0.974,-18.957 1.428,-20.333 0.618,-1.839 2.864,-2.565 2.864,-2.565 0,0 0.275,-1.112 0.656,-3.686 l 22.172,17.584 c 0.069,0.615 0.128,1.239 0.166,1.85"
       style="fill:#0f448c;fill-opacity:1;fill-rule:nonzero;stroke:none"
       id="path4823"
       inkscape:connector-curvature="0" /><path
       d="m 213.071,78.033 c -6.302,-4.684 -11.076,-8.235 -12.245,-9.122 -4.066,-3.092 -4.141,-4.498 -4.141,-6.36 0,-2.183 -0.06,-15.239 -0.073,-18.084 l 37.014,8.653 z"
       style="fill:#00008c;fill-opacity:1;fill-rule:nonzero;stroke:none"
       id="path4825"
       inkscape:connector-curvature="0" /><path
       d="m 61.551,201.094 0.412,-0.465 -4.358,-3.346 -0.373,0.488 z m 8.667,6.626 0.374,-0.466 -8.142,-6.246 -0.411,0.448 z m 8.683,6.663 0.325,-0.525 -8.146,-6.246 -0.375,0.487 z m 10.941,8.375 0.362,-0.487 -10.491,-8.034 -0.324,0.525 z M 47.533,173.454 c 0.075,-3.074 0.92,-9.808 0.92,-8.271 0,1.533 2.76,3.448 2.76,3.448 l 0.379,-2.691 2.149,-0.076 0.075,4.3 65.072,29.501 c 0,0 0.033,1.617 0.146,2.731 l -18.891,27.505 -9.458,-7.252 -0.357,0.486 9.467,7.273 -2.453,3.574 c -27.57,-21.758 -43.124,-35.091 -43.124,-35.091 0,0 0.433,-1.896 0.043,-2.235 -0.671,-0.595 -1.949,-1.288 -1.867,-2.333 0.069,-0.904 -0.337,-2.166 -0.337,-2.166 0,0 -0.981,-1.448 -2.144,-3.278 l -1.774,-9.289 c 0.006,0.002 0.01,0.003 0.01,0.003 0,0 -0.692,-2.999 -0.616,-6.139"
       style="fill:#00008c;fill-opacity:1;fill-rule:nonzero;stroke:none"
       id="path4827"
       inkscape:connector-curvature="0" /><path
       d="m 119.581,196.995 c 0.064,0.025 0.933,0.405 2.43,1.065 l -2.723,3.963 c 0.011,-2.89 -0.106,-4.759 0.293,-5.028"
       style="fill:#00008c;fill-opacity:1;fill-rule:nonzero;stroke:none"
       id="path4829"
       inkscape:connector-curvature="0" /><path
       d="m 110.124,238.304 0.357,-0.503 -9.695,-7.422 -0.368,0.488 z m 10.545,8.092 0.422,-0.449 -10.128,-7.767 -0.352,0.503 z m 10.642,8.158 0.352,-0.504 -10.085,-7.724 -0.417,0.449 z m 10.555,8.093 0.314,-0.546 -10.031,-7.688 -0.351,0.504 z m 10.474,8.017 0.352,-0.51 -10.024,-7.67 -0.314,0.526 z m -52.414,-40.155 0.373,-0.488 -0.156,-0.12 18.891,-27.505 c 0.057,0.566 0.134,1.002 0.238,1.026 0.011,-0.488 0.015,-0.955 0.016,-1.399 l 2.723,-3.963 c 6.287,2.772 23.708,10.502 39.742,17.641 l 0.136,61.519 -8.709,-6.687 -0.352,0.51 9.063,6.949 0.015,6.659 c -14.699,-11.662 -32.389,-25.615 -48.761,-38.309 -5.635,-4.368 -10.907,-8.496 -15.803,-12.36 l 2.453,-3.574 z"
       style="fill:#07228c;fill-opacity:1;fill-rule:nonzero;stroke:none"
       id="path4831"
       inkscape:connector-curvature="0" /><path
       d="m 46.151,181.813 c -0.218,-2.801 1.83,-2.268 1.988,-2.223 l 1.774,9.289 c -1.654,-2.604 -3.672,-5.977 -3.762,-7.066"
       style="fill:#00298c;fill-opacity:1;fill-rule:nonzero;stroke:none"
       id="path4833"
       inkscape:connector-curvature="0" /></g></svg>